<?xml version="1.0" encoding="UTF-8"?>
<svg xmlns="http://www.w3.org/2000/svg" xmlns:xlink="http://www.w3.org/1999/xlink" width="269px" height="103px" viewBox="0 0 267 103" version="1.1">
<g id="surface1">
<path style=" stroke:none;fill-rule:nonzero;fill:rgb(5.098039%,69.019608%,29.411765%);fill-opacity:1;" d="M 112.574219 25.605469 C 106.265625 25.703125 100.683594 29.722656 98.574219 35.6875 C 98.453125 35.984375 98.070312 37.226562 98.070312 37.226562 L 89.222656 75.640625 L 109.542969 75.640625 C 116.519531 75.640625 122.425781 70.585938 124.09375 63.78125 L 132.914062 25.582031 Z M 112.574219 25.605469 "/>
<path style=" stroke:none;fill-rule:nonzero;fill:rgb(94.901961%,44.705882%,14.901961%);fill-opacity:1;" d="M 78.753906 14.484375 C 72.082031 14.503906 66.234375 18.964844 64.433594 25.410156 C 64.296875 25.886719 64.191406 26.371094 64.097656 26.851562 L 50.3125 86.792969 L 70.605469 86.792969 C 77.445312 86.769531 83.390625 82.082031 85.039062 75.421875 L 99.070312 14.484375 Z M 78.753906 14.484375 "/>
<path style=" stroke:none;fill-rule:nonzero;fill:rgb(5.490196%,41.176471%,68.627451%);fill-opacity:1;" d="M 39.832031 25.605469 C 33.273438 25.710938 27.527344 30.039062 25.59375 36.332031 L 25.464844 36.75 L 25.128906 38.09375 L 16.484375 75.640625 L 37.285156 75.640625 C 43.460938 75.546875 48.917969 71.570312 50.914062 65.703125 L 51.714844 62.128906 L 60.136719 25.605469 Z M 39.832031 25.605469 "/>
<path style=" stroke:none;fill-rule:nonzero;fill:rgb(100%,100%,100%);fill-opacity:1;" d="M 36.03125 38.09375 L 35.71875 38.09375 C 34.222656 38.109375 32.78125 38.65625 31.648438 39.640625 C 30.59375 40.449219 29.804688 41.550781 29.378906 42.808594 L 24.703125 63.152344 L 24.96875 63.152344 C 26.476562 63.132812 27.929688 62.578125 29.074219 61.589844 C 30.28125 60.65625 31.128906 59.332031 31.480469 57.839844 L 32.496094 53.429688 L 41.757812 53.429688 C 43.273438 53.394531 44.726562 52.824219 45.863281 51.820312 C 47.070312 50.894531 47.921875 49.574219 48.269531 48.089844 L 48.324219 47.824219 L 33.78125 47.824219 L 34.75 43.628906 L 47.339844 43.628906 C 48.828125 43.613281 50.269531 43.074219 51.402344 42.101562 C 52.597656 41.15625 53.445312 39.839844 53.808594 38.359375 L 53.875 38.09375 Z M 36.03125 38.09375 "/>
<path style=" stroke:none;fill-rule:nonzero;fill:rgb(100%,100%,100%);fill-opacity:1;" d="M 87.394531 39.324219 C 86.570312 38.511719 85.449219 38.070312 84.292969 38.109375 L 66.550781 38.09375 L 60.808594 63.121094 L 61.074219 63.121094 C 62.585938 63.101562 64.042969 62.550781 65.1875 61.558594 C 66.390625 60.621094 67.238281 59.296875 67.59375 57.808594 L 68.617188 53.34375 L 80.917969 53.34375 C 82.355469 53.457031 83.78125 53.039062 84.925781 52.160156 C 86.152344 51.105469 87.015625 49.6875 87.394531 48.113281 L 88.472656 43.453125 C 88.554688 43.078125 88.597656 42.695312 88.597656 42.308594 C 88.628906 41.191406 88.195312 40.109375 87.394531 39.324219 Z M 81.855469 47.847656 L 69.902344 47.847656 L 70.871094 43.644531 L 82.898438 43.644531 Z M 81.855469 47.847656 "/>
<path style=" stroke:none;fill-rule:nonzero;fill:rgb(100%,100%,100%);fill-opacity:1;" d="M 123.582031 39.339844 C 122.765625 38.519531 121.640625 38.078125 120.488281 38.125 L 101.742188 38.125 L 101.742188 38.304688 C 101.664062 38.664062 101.617188 39.035156 101.605469 39.40625 C 101.554688 40.542969 101.976562 41.648438 102.765625 42.464844 C 103.578125 43.277344 104.691406 43.714844 105.835938 43.679688 L 109.757812 43.679688 L 105.292969 63.152344 L 105.558594 63.152344 C 107.066406 63.136719 108.523438 62.582031 109.664062 61.589844 C 110.871094 60.65625 111.71875 59.332031 112.066406 57.839844 L 115.347656 43.679688 L 124.59375 43.679688 L 124.59375 43.5 C 124.671875 43.125 124.714844 42.742188 124.71875 42.359375 C 124.777344 41.238281 124.363281 40.144531 123.582031 39.339844 Z M 123.582031 39.339844 "/>
<path style=" stroke:none;fill-rule:nonzero;fill:rgb(5.490196%,41.176471%,68.627451%);fill-opacity:1;" d="M 127.230469 71.351562 C 127.21875 69.601562 128.265625 68.019531 129.875 67.347656 C 131.484375 66.671875 133.335938 67.042969 134.570312 68.28125 C 135.800781 69.519531 136.164062 71.382812 135.492188 72.996094 C 134.816406 74.609375 133.238281 75.652344 131.496094 75.640625 C 129.125 75.636719 127.207031 73.707031 127.207031 71.328125 M 134.75 71.328125 C 134.621094 69.558594 133.109375 68.21875 131.347656 68.304688 C 129.582031 68.390625 128.210938 69.871094 128.25 71.644531 C 128.289062 73.414062 129.730469 74.832031 131.496094 74.835938 C 132.390625 74.824219 133.246094 74.449219 133.859375 73.792969 C 134.476562 73.136719 134.796875 72.257812 134.75 71.359375 M 129.890625 68.890625 L 131.703125 68.890625 C 132.867188 68.890625 133.5 69.300781 133.5 70.320312 C 133.519531 70.671875 133.386719 71.015625 133.140625 71.261719 C 132.890625 71.507812 132.550781 71.636719 132.199219 71.617188 L 133.507812 73.75 L 132.578125 73.75 L 131.328125 71.640625 L 130.773438 71.640625 L 130.773438 73.75 L 129.890625 73.75 Z M 130.796875 70.980469 L 131.601562 70.980469 C 132.128906 70.980469 132.59375 70.902344 132.59375 70.257812 C 132.59375 69.613281 132.074219 69.582031 131.609375 69.582031 L 130.804688 69.582031 Z M 130.796875 70.980469 "/>
<path style=" stroke:none;fill-rule:nonzero;fill:rgb(6.27451%,40.784314%,69.019608%);fill-opacity:1;" d="M 145.359375 63.054688 L 145.359375 43.742188 L 155.453125 43.742188 L 155.453125 46.277344 L 148.332031 46.277344 L 148.332031 51.949219 L 154.835938 51.949219 L 154.835938 54.429688 L 148.332031 54.429688 L 148.332031 60.503906 L 155.476562 60.503906 L 155.476562 63.03125 Z M 145.359375 63.054688 "/>
<path style=" stroke:none;fill-rule:nonzero;fill:rgb(6.27451%,40.784314%,69.019608%);fill-opacity:1;" d="M 168.804688 62.339844 C 167.277344 63.085938 165.589844 63.433594 163.894531 63.351562 C 161.980469 63.464844 160.109375 62.746094 158.757812 61.382812 C 157.46875 59.894531 156.8125 57.964844 156.929688 56 C 156.820312 54.0625 157.425781 52.15625 158.628906 50.640625 C 159.875 49.230469 161.691406 48.464844 163.566406 48.5625 C 164.351562 48.550781 165.128906 48.667969 165.875 48.910156 L 165.875 42.140625 L 168.796875 42.140625 Z M 165.886719 51.121094 C 165.230469 50.878906 164.535156 50.769531 163.839844 50.800781 C 162.652344 50.765625 161.527344 51.328125 160.839844 52.304688 C 160.117188 53.410156 159.761719 54.71875 159.832031 56.039062 C 159.753906 57.355469 160.117188 58.65625 160.867188 59.738281 C 161.582031 60.640625 162.691406 61.140625 163.839844 61.074219 C 164.542969 61.113281 165.242188 60.984375 165.886719 60.699219 Z M 165.886719 51.121094 "/>
<path style=" stroke:none;fill-rule:nonzero;fill:rgb(6.27451%,40.784314%,69.019608%);fill-opacity:1;" d="M 182.554688 62.339844 C 180.839844 63.089844 178.976562 63.433594 177.109375 63.351562 C 173.257812 63.351562 171.328125 61.628906 171.328125 58.179688 L 171.328125 48.699219 L 174.222656 48.699219 L 174.222656 58.234375 C 174.222656 60.046875 175.1875 60.953125 177.109375 60.953125 C 177.976562 60.992188 178.84375 60.855469 179.660156 60.550781 L 179.660156 48.699219 L 182.554688 48.699219 Z M 182.554688 62.339844 "/>
<path style=" stroke:none;fill-rule:nonzero;fill:rgb(6.27451%,40.784314%,69.019608%);fill-opacity:1;" d="M 194.5 62.363281 C 193.40625 63.058594 192.125 63.402344 190.828125 63.351562 C 189.199219 63.402344 187.628906 62.753906 186.507812 61.566406 C 185.121094 60.003906 184.414062 57.949219 184.542969 55.863281 C 184.414062 53.78125 185.121094 51.738281 186.507812 50.1875 C 187.628906 49.003906 189.199219 48.351562 190.828125 48.402344 C 192.121094 48.351562 193.398438 48.699219 194.492188 49.390625 L 193.546875 51.5 C 192.863281 51.027344 192.046875 50.785156 191.214844 50.808594 C 190.222656 50.78125 189.277344 51.226562 188.664062 52.007812 C 187.855469 53.117188 187.464844 54.472656 187.550781 55.84375 C 187.460938 57.21875 187.867188 58.582031 188.6875 59.683594 C 189.292969 60.464844 190.226562 60.917969 191.214844 60.90625 C 192.046875 60.929688 192.863281 60.6875 193.546875 60.214844 Z M 194.5 62.363281 "/>
<path style=" stroke:none;fill-rule:nonzero;fill:rgb(6.27451%,40.784314%,69.019608%);fill-opacity:1;" d="M 206.863281 62.339844 C 205.253906 63.089844 203.484375 63.4375 201.710938 63.351562 C 197.589844 63.351562 195.527344 61.851562 195.527344 58.847656 C 195.484375 57.113281 196.554688 55.546875 198.179688 54.960938 C 200.078125 54.28125 202.078125 53.925781 204.089844 53.914062 L 204.089844 52.988281 C 204.089844 51.378906 203.082031 50.574219 201.058594 50.574219 C 199.695312 50.566406 198.34375 50.867188 197.105469 51.453125 L 196.359375 49.457031 C 197.933594 48.769531 199.632812 48.425781 201.347656 48.441406 C 205.015625 48.441406 206.847656 50.066406 206.847656 53.320312 Z M 204.105469 55.835938 C 202.75 55.851562 201.402344 56.046875 200.097656 56.425781 C 199.011719 56.691406 198.253906 57.667969 198.261719 58.789062 C 198.261719 60.398438 199.382812 61.203125 201.636719 61.203125 C 202.476562 61.25 203.316406 61.125 204.105469 60.835938 Z M 204.105469 55.835938 "/>
<path style=" stroke:none;fill-rule:nonzero;fill:rgb(6.27451%,40.784314%,69.019608%);fill-opacity:1;" d="M 216.085938 62.925781 C 215.511719 63.15625 214.898438 63.265625 214.28125 63.242188 C 211.664062 63.242188 210.351562 61.835938 210.351562 59.03125 L 210.351562 50.878906 L 208.414062 50.878906 L 208.414062 48.699219 L 210.351562 48.699219 L 210.351562 45.367188 L 213.191406 44.484375 L 213.191406 48.699219 L 216.085938 48.699219 L 216.085938 50.878906 L 213.191406 50.878906 L 213.191406 58.871094 C 213.191406 60.085938 213.832031 60.691406 215.105469 60.691406 C 215.445312 60.695312 215.777344 60.628906 216.085938 60.496094 Z M 216.085938 62.925781 "/>
<path style=" stroke:none;fill-rule:nonzero;fill:rgb(6.27451%,40.784314%,69.019608%);fill-opacity:1;" d="M 220.574219 45.601562 C 219.886719 46.246094 218.820312 46.246094 218.128906 45.601562 C 217.800781 45.304688 217.617188 44.878906 217.625 44.433594 C 217.617188 43.988281 217.800781 43.5625 218.128906 43.261719 C 218.824219 42.628906 219.882812 42.628906 220.574219 43.261719 C 220.90625 43.5625 221.089844 43.988281 221.082031 44.433594 C 221.089844 44.878906 220.902344 45.304688 220.574219 45.601562 Z M 217.890625 63.054688 L 217.890625 48.699219 L 220.808594 48.699219 L 220.808594 63.054688 Z M 217.890625 63.054688 "/>
<path style=" stroke:none;fill-rule:nonzero;fill:rgb(6.27451%,40.784314%,69.019608%);fill-opacity:1;" d="M 233.84375 61.15625 C 232.679688 62.53125 230.972656 63.320312 229.175781 63.320312 C 227.378906 63.320312 225.667969 62.53125 224.503906 61.15625 C 223.371094 59.621094 222.800781 57.738281 222.902344 55.828125 C 222.804688 53.921875 223.371094 52.039062 224.503906 50.503906 C 225.679688 49.148438 227.382812 48.371094 229.175781 48.371094 C 230.964844 48.371094 232.667969 49.148438 233.84375 50.503906 C 234.980469 52.039062 235.546875 53.921875 235.449219 55.828125 C 235.546875 57.738281 234.980469 59.621094 233.84375 61.15625 Z M 231.722656 52.101562 C 231.167969 51.242188 230.21875 50.722656 229.199219 50.722656 C 228.179688 50.722656 227.230469 51.242188 226.675781 52.101562 C 226.050781 53.242188 225.757812 54.539062 225.828125 55.835938 C 225.753906 57.125 226.039062 58.410156 226.652344 59.546875 C 227.1875 60.4375 228.148438 60.984375 229.1875 60.984375 C 230.222656 60.984375 231.183594 60.4375 231.722656 59.546875 C 232.324219 58.410156 232.605469 57.125 232.523438 55.835938 C 232.605469 54.542969 232.328125 53.25 231.722656 52.101562 Z M 231.722656 52.101562 "/>
<path style=" stroke:none;fill-rule:nonzero;fill:rgb(6.27451%,40.784314%,69.019608%);fill-opacity:1;" d="M 245.976562 63.054688 L 245.976562 53.464844 C 245.976562 51.652344 244.984375 50.742188 242.976562 50.742188 C 242.082031 50.714844 241.191406 50.863281 240.347656 51.171875 L 240.347656 63.054688 L 237.460938 63.054688 L 237.460938 49.375 C 239.207031 48.695312 241.070312 48.363281 242.945312 48.402344 C 246.90625 48.402344 248.890625 50.011719 248.894531 53.230469 L 248.894531 63.054688 Z M 245.976562 63.054688 "/>
</g>
</svg>
